# Blender 4.1.1
# www.blender.org
mtllib dev_torus.mtl
o Torus
v 1.250000 0.000000 0.000000
v 1.176777 0.176777 0.000000
v 1.000000 0.250000 0.000000
v 0.823223 0.176777 0.000000
v 0.750000 0.000000 0.000000
v 0.823223 -0.176777 0.000000
v 1.000000 -0.250000 0.000000
v 1.176777 -0.176777 0.000000
v 0.883883 0.000000 -0.883884
v 0.832107 0.176777 -0.832107
v 0.707107 0.250000 -0.707107
v 0.582107 0.176777 -0.582107
v 0.530330 0.000000 -0.530330
v 0.582107 -0.176777 -0.582107
v 0.707107 -0.250000 -0.707107
v 0.832107 -0.176777 -0.832107
v 0.000000 0.000000 -1.250000
v 0.000000 0.176777 -1.176777
v 0.000000 0.250000 -1.000000
v 0.000000 0.176777 -0.823223
v 0.000000 0.000000 -0.750000
v 0.000000 -0.176777 -0.823223
v 0.000000 -0.250000 -1.000000
v 0.000000 -0.176777 -1.176777
v -0.883884 0.000000 -0.883883
v -0.832107 0.176777 -0.832107
v -0.707107 0.250000 -0.707107
v -0.582107 0.176777 -0.582107
v -0.530330 0.000000 -0.530330
v -0.582107 -0.176777 -0.582107
v -0.707107 -0.250000 -0.707107
v -0.832107 -0.176777 -0.832107
v -1.250000 0.000000 -0.000000
v -1.176777 0.176777 -0.000000
v -1.000000 0.250000 -0.000000
v -0.823223 0.176777 -0.000000
v -0.750000 0.000000 -0.000000
v -0.823223 -0.176777 -0.000000
v -1.000000 -0.250000 -0.000000
v -1.176777 -0.176777 -0.000000
v -0.883884 0.000000 0.883883
v -0.832107 0.176777 0.832107
v -0.707107 0.250000 0.707107
v -0.582107 0.176777 0.582107
v -0.530330 0.000000 0.530330
v -0.582107 -0.176777 0.582107
v -0.707107 -0.250000 0.707107
v -0.832107 -0.176777 0.832107
v 0.000000 0.000000 1.250000
v 0.000000 0.176777 1.176777
v 0.000000 0.250000 1.000000
v 0.000000 0.176777 0.823223
v 0.000000 0.000000 0.750000
v 0.000000 -0.176777 0.823223
v 0.000000 -0.250000 1.000000
v 0.000000 -0.176777 1.176777
v 0.883883 0.000000 0.883884
v 0.832106 0.176777 0.832107
v 0.707106 0.250000 0.707107
v 0.582106 0.176777 0.582107
v 0.530330 0.000000 0.530330
v 0.582106 -0.176777 0.582107
v 0.707106 -0.250000 0.707107
v 0.832106 -0.176777 0.832107
vn 0.8629 0.3574 -0.3574
vn 0.3780 0.9125 -0.1566
vn -0.3780 0.9125 0.1566
vn -0.8629 0.3574 0.3574
vn -0.8629 -0.3574 0.3574
vn -0.3780 -0.9125 0.1566
vn 0.3780 -0.9125 -0.1566
vn 0.8629 -0.3574 -0.3574
vn 0.3574 0.3574 -0.8629
vn 0.1566 0.9125 -0.3780
vn -0.1566 0.9125 0.3780
vn -0.3574 0.3574 0.8629
vn -0.3574 -0.3574 0.8629
vn -0.1566 -0.9125 0.3780
vn 0.1566 -0.9125 -0.3780
vn 0.3574 -0.3574 -0.8629
vn -0.3574 0.3574 -0.8629
vn -0.1566 0.9125 -0.3780
vn 0.1566 0.9125 0.3780
vn 0.3574 0.3574 0.8629
vn 0.3574 -0.3574 0.8629
vn 0.1566 -0.9125 0.3780
vn -0.1566 -0.9125 -0.3780
vn -0.3574 -0.3574 -0.8629
vn -0.8629 0.3574 -0.3574
vn -0.3780 0.9125 -0.1566
vn 0.3780 0.9125 0.1566
vn 0.8629 0.3574 0.3574
vn 0.8629 -0.3574 0.3574
vn 0.3780 -0.9125 0.1566
vn -0.3780 -0.9125 -0.1566
vn -0.8629 -0.3574 -0.3574
vt 0.830394 0.000115
vt 0.999885 0.044478
vt 0.985074 0.078372
vt 0.831116 0.035601
vt 0.964157 0.106457
vt 0.831133 0.069448
vt 0.944447 0.133187
vt 0.830909 0.103970
vt 0.930829 0.164971
vt 0.830524 0.138523
vt 0.336409 0.529743
vt 0.435769 0.509421
vt 0.447213 0.539475
vt 0.334979 0.564659
vt 0.465644 0.566223
vt 0.333743 0.599413
vt 0.485954 0.595993
vt 0.332756 0.631917
vt 0.498960 0.629747
vt 0.331762 0.665971
vt 0.999885 0.624122
vt 0.824027 0.662532
vt 0.824904 0.627068
vt 0.987135 0.590454
vt 0.826430 0.592319
vt 0.966065 0.558610
vt 0.828099 0.556889
vt 0.945627 0.528778
vt 0.829019 0.519500
vt 0.933296 0.497187
vt 0.429672 0.163576
vt 0.331172 0.136532
vt 0.331903 0.101143
vt 0.443398 0.132418
vt 0.331713 0.067206
vt 0.463928 0.104717
vt 0.332123 0.035041
vt 0.484426 0.077016
vt 0.331587 0.000115
vt 0.498960 0.043514
vt 0.655932 0.610942
vt 0.673881 0.580276
vt 0.691746 0.551595
vt 0.709782 0.523001
vt 0.727515 0.492464
vt 0.233973 0.158785
vt 0.217004 0.128621
vt 0.201583 0.100884
vt 0.185864 0.071929
vt 0.169702 0.042866
vt 0.538871 0.486462
vt 0.569015 0.469173
vt 0.598122 0.453614
vt 0.627353 0.438350
vt 0.656042 0.422149
vt 0.163687 0.228729
vt 0.134031 0.211613
vt 0.106149 0.194173
vt 0.078056 0.177000
vt 0.046899 0.158291
vt 0.499191 0.323236
vt 0.533646 0.323267
vt 0.566327 0.324364
vt 0.598952 0.325901
vt 0.632893 0.326411
vt 0.136564 0.325468
vt 0.102887 0.325553
vt 0.069289 0.324463
vt 0.035642 0.323697
vt 0.000115 0.323937
vt 0.545802 0.162049
vt 0.575664 0.179145
vt 0.603460 0.196278
vt 0.631039 0.213840
vt 0.660432 0.231305
vt 0.165036 0.424074
vt 0.133119 0.442529
vt 0.103048 0.458524
vt 0.073055 0.474897
vt 0.041986 0.493099
vt 0.665964 0.045243
vt 0.683646 0.075089
vt 0.699129 0.102783
vt 0.714587 0.130698
vt 0.732001 0.162448
vt 0.237864 0.499660
vt 0.219412 0.530191
vt 0.200990 0.558797
vt 0.182728 0.588997
vt 0.164945 0.620203
s 0
usemtl Material.001
f 1/1/1 9/2/1 10/3/1 2/4/1
f 2/4/2 10/3/2 11/5/2 3/6/2
f 3/6/3 11/5/3 12/7/3 4/8/3
f 4/8/4 12/7/4 13/9/4 5/10/4
f 5/11/5 13/12/5 14/13/5 6/14/5
f 6/14/6 14/13/6 15/15/6 7/16/6
f 7/16/7 15/15/7 16/17/7 8/18/7
f 8/18/8 16/17/8 9/19/8 1/20/8
f 9/21/9 17/22/9 18/23/9 10/24/9
f 10/24/10 18/23/10 19/25/10 11/26/10
f 11/26/11 19/25/11 20/27/11 12/28/11
f 12/28/12 20/27/12 21/29/12 13/30/12
f 13/31/13 21/32/13 22/33/13 14/34/13
f 14/34/14 22/33/14 23/35/14 15/36/14
f 15/36/15 23/35/15 24/37/15 16/38/15
f 16/38/16 24/37/16 17/39/16 9/40/16
f 17/22/17 25/41/17 26/42/17 18/23/17
f 18/23/18 26/42/18 27/43/18 19/25/18
f 19/25/19 27/43/19 28/44/19 20/27/19
f 20/27/20 28/44/20 29/45/20 21/29/20
f 21/32/21 29/46/21 30/47/21 22/33/21
f 22/33/22 30/47/22 31/48/22 23/35/22
f 23/35/23 31/48/23 32/49/23 24/37/23
f 24/37/24 32/49/24 25/50/24 17/39/24
f 25/41/25 33/51/25 34/52/25 26/42/25
f 26/42/26 34/52/26 35/53/26 27/43/26
f 27/43/27 35/53/27 36/54/27 28/44/27
f 28/44/28 36/54/28 37/55/28 29/45/28
f 29/46/29 37/56/29 38/57/29 30/47/29
f 30/47/30 38/57/30 39/58/30 31/48/30
f 31/48/31 39/58/31 40/59/31 32/49/31
f 32/49/32 40/59/32 33/60/32 25/50/32
f 33/51/4 41/61/4 42/62/4 34/52/4
f 34/52/3 42/62/3 43/63/3 35/53/3
f 35/53/2 43/63/2 44/64/2 36/54/2
f 36/54/1 44/64/1 45/65/1 37/55/1
f 37/56/8 45/66/8 46/67/8 38/57/8
f 38/57/7 46/67/7 47/68/7 39/58/7
f 39/58/6 47/68/6 48/69/6 40/59/6
f 40/59/5 48/69/5 41/70/5 33/60/5
f 41/61/12 49/71/12 50/72/12 42/62/12
f 42/62/11 50/72/11 51/73/11 43/63/11
f 43/63/10 51/73/10 52/74/10 44/64/10
f 44/64/9 52/74/9 53/75/9 45/65/9
f 45/66/16 53/76/16 54/77/16 46/67/16
f 46/67/15 54/77/15 55/78/15 47/68/15
f 47/68/14 55/78/14 56/79/14 48/69/14
f 48/69/13 56/79/13 49/80/13 41/70/13
f 49/71/20 57/81/20 58/82/20 50/72/20
f 50/72/19 58/82/19 59/83/19 51/73/19
f 51/73/18 59/83/18 60/84/18 52/74/18
f 52/74/17 60/84/17 61/85/17 53/75/17
f 53/76/24 61/86/24 62/87/24 54/77/24
f 54/77/23 62/87/23 63/88/23 55/78/23
f 55/78/22 63/88/22 64/89/22 56/79/22
f 56/79/21 64/89/21 57/90/21 49/80/21
f 57/81/28 1/1/28 2/4/28 58/82/28
f 58/82/27 2/4/27 3/6/27 59/83/27
f 59/83/26 3/6/26 4/8/26 60/84/26
f 60/84/25 4/8/25 5/10/25 61/85/25
f 61/86/32 5/11/32 6/14/32 62/87/32
f 62/87/31 6/14/31 7/16/31 63/88/31
f 63/88/30 7/16/30 8/18/30 64/89/30
f 64/89/29 8/18/29 1/20/29 57/90/29
