# Blender 4.1.1
# www.blender.org
mtllib dev_valley.mtl
o Plane
v -1.000000 -0.843275 1.000000
v 1.000000 -0.843275 1.000000
v -1.000000 -0.843275 -1.000000
v 1.000000 -0.843275 -1.000000
v -2.002226 0.000000 2.002226
v 2.002226 0.000000 2.002226
v -2.002226 0.000000 -2.002226
v 2.002226 0.000000 -2.002226
v -1.000000 0.118569 -1.000000
v -1.000000 0.118569 1.000000
v 1.000000 0.118569 1.000000
v 1.000000 0.118569 -1.000000
v -2.002226 0.961843 -2.002226
v -2.002226 0.961843 2.002226
v 2.002226 0.961843 2.002226
v 2.002226 0.961843 -2.002226
vn -0.0000 -1.0000 -0.0000
vn 0.6438 -0.7652 -0.0000
vn -0.6438 -0.7652 -0.0000
vn -0.0000 -0.7652 0.6438
vn -0.0000 -0.7652 -0.6438
vn -0.0000 1.0000 -0.0000
vn -0.6438 0.7652 -0.0000
vn 0.6438 0.7652 -0.0000
vn -0.0000 0.7652 -0.6438
vn -0.0000 0.7652 0.6438
vn -1.0000 -0.0000 -0.0000
vn -0.0000 -0.0000 -1.0000
vn 1.0000 -0.0000 -0.0000
vn -0.0000 -0.0000 1.0000
vt 0.999645 0.706705
vt 0.764606 0.706705
vt 0.764606 0.471666
vt 0.999645 0.471666
vt 0.773536 0.118136
vt 0.927463 0.000355
vt 0.927463 0.470957
vt 0.773536 0.353175
vt 0.154282 0.824487
vt 0.000355 0.942268
vt 0.000355 0.471666
vt 0.154282 0.589447
vt 0.618899 0.353175
vt 0.618899 0.118136
vt 0.772826 0.000355
vt 0.772826 0.470957
vt 0.308918 0.824487
vt 0.154991 0.942268
vt 0.154991 0.471666
vt 0.308918 0.589447
vt 0.764606 0.707414
vt 0.999645 0.707414
vt 0.999645 0.942454
vt 0.764606 0.942454
vt 0.463554 0.118136
vt 0.463554 0.353175
vt 0.309627 0.470957
vt 0.309627 0.000355
vt 0.000355 0.353175
vt 0.000355 0.118136
vt 0.154282 0.000355
vt 0.154282 0.470957
vt 0.618190 0.353175
vt 0.464263 0.470957
vt 0.464263 0.000355
vt 0.618190 0.118136
vt 0.154991 0.353175
vt 0.154991 0.118136
vt 0.308918 0.000355
vt 0.308918 0.470957
vt 0.309627 0.942268
vt 0.309627 0.471666
vt 0.422663 0.471666
vt 0.422663 0.942268
vt 0.423372 0.942268
vt 0.423372 0.471666
vt 0.536407 0.471666
vt 0.536407 0.942268
vt 0.537116 0.942268
vt 0.537116 0.471666
vt 0.650152 0.471666
vt 0.650152 0.942268
vt 0.650861 0.942268
vt 0.650861 0.471666
vt 0.763897 0.471666
vt 0.763897 0.942268
s 0
usemtl Material.001
f 1/1/1 3/2/1 4/3/1 2/4/1
f 4/5/2 8/6/2 6/7/2 2/8/2
f 1/9/3 5/10/3 7/11/3 3/12/3
f 1/13/4 2/14/4 6/15/4 5/16/4
f 3/17/5 7/18/5 8/19/5 4/20/5
f 10/21/6 11/22/6 12/23/6 9/24/6
f 12/25/7 11/26/7 15/27/7 16/28/7
f 10/29/8 9/30/8 13/31/8 14/32/8
f 10/33/9 14/34/9 15/35/9 11/36/9
f 9/37/10 12/38/10 16/39/10 13/40/10
f 7/41/11 5/42/11 14/43/11 13/44/11
f 8/45/12 7/46/12 13/47/12 16/48/12
f 6/49/13 8/50/13 16/51/13 15/52/13
f 5/53/14 6/54/14 15/55/14 14/56/14
